<svg width="18" height="19" viewBox="0 0 18 19" fill="none" xmlns="http://www.w3.org/2000/svg">
<path d="M7.12504 15.0417C3.16671 16.2292 3.16671 13.0626 1.58337 12.6667M12.6667 17.4167V14.353C12.6964 13.9755 12.6454 13.596 12.5171 13.2397C12.3888 12.8835 12.1861 12.5586 11.9225 12.2867C14.4084 12.0096 17.0209 11.0676 17.0209 6.74505C17.0207 5.63975 16.5955 4.57683 15.8334 3.7763C16.1943 2.80929 16.1687 1.74041 15.7621 0.791719C15.7621 0.791719 14.828 0.514636 12.6667 1.96339C10.8522 1.47162 8.93953 1.47162 7.12504 1.96339C4.96379 0.514636 4.02962 0.791719 4.02962 0.791719C3.62301 1.74041 3.59749 2.80929 3.95837 3.7763C3.19056 4.58277 2.76495 5.65529 2.77087 6.7688C2.77087 11.0596 5.38337 12.0017 7.86921 12.3105C7.60875 12.5796 7.40787 12.9006 7.27966 13.2525C7.15145 13.6044 7.09876 13.9794 7.12504 14.353V17.4167" stroke="white" stroke-width="1.58333" stroke-linecap="round" stroke-linejoin="round"/>
</svg>
