<svg width="20" height="19" viewBox="0 0 20 19" fill="none" xmlns="http://www.w3.org/2000/svg">
<path d="M14.0583 1.58331H6.14168C3.95556 1.58331 2.18335 3.35552 2.18335 5.54165V13.4583C2.18335 15.6444 3.95556 17.4166 6.14168 17.4166H14.0583C16.2445 17.4166 18.0167 15.6444 18.0167 13.4583V5.54165C18.0167 3.35552 16.2445 1.58331 14.0583 1.58331Z" stroke="white" stroke-width="1.58333" stroke-linecap="round" stroke-linejoin="round"/>
<path d="M13.2666 9.00124C13.3643 9.66011 13.2518 10.333 12.945 10.9242C12.6382 11.5154 12.1529 11.9949 11.5579 12.2943C10.9629 12.5938 10.2887 12.698 9.63111 12.5922C8.9735 12.4864 8.36601 12.1759 7.89503 11.7049C7.42405 11.2339 7.11357 10.6264 7.00775 9.96883C6.90193 9.31122 7.00617 8.63699 7.30562 8.04204C7.60508 7.44709 8.08451 6.96171 8.67573 6.65494C9.26694 6.34817 9.93984 6.23563 10.5987 6.33333C11.2708 6.43299 11.893 6.74615 12.3734 7.22657C12.8538 7.70699 13.167 8.32918 13.2666 9.00124Z" stroke="white" stroke-width="1.58333" stroke-linecap="round" stroke-linejoin="round"/>
<path d="M14.4543 5.14581H14.4624" stroke="white" stroke-width="1.58333" stroke-linecap="round" stroke-linejoin="round"/>
</svg>
