<svg width="20" height="19" viewBox="0 0 20 19" fill="none" xmlns="http://www.w3.org/2000/svg">
<path d="M13.0667 6.33331C14.3264 6.33331 15.5346 6.83376 16.4254 7.72456C17.3162 8.61535 17.8167 9.82353 17.8167 11.0833V16.625H14.65V11.0833C14.65 10.6634 14.4832 10.2607 14.1862 9.96373C13.8893 9.6668 13.4866 9.49998 13.0667 9.49998C12.6467 9.49998 12.244 9.6668 11.9471 9.96373C11.6501 10.2607 11.4833 10.6634 11.4833 11.0833V16.625H8.31665V11.0833C8.31665 9.82353 8.8171 8.61535 9.70789 7.72456C10.5987 6.83376 11.8069 6.33331 13.0667 6.33331V6.33331Z" stroke="white" stroke-width="1.58333" stroke-linecap="round" stroke-linejoin="round"/>
<path d="M5.14982 7.125H1.98315V16.625H5.14982V7.125Z" stroke="white" stroke-width="1.58333" stroke-linecap="round" stroke-linejoin="round"/>
<path d="M3.56649 4.74998C4.44094 4.74998 5.14982 4.0411 5.14982 3.16665C5.14982 2.2922 4.44094 1.58331 3.56649 1.58331C2.69204 1.58331 1.98315 2.2922 1.98315 3.16665C1.98315 4.0411 2.69204 4.74998 3.56649 4.74998Z" stroke="white" stroke-width="1.58333" stroke-linecap="round" stroke-linejoin="round"/>
</svg>
